<?xml version="1.0" standalone="no"?>
<!DOCTYPE svg PUBLIC "-//W3C//DTD SVG 20010904//EN"
 "http://www.w3.org/TR/2001/REC-SVG-20010904/DTD/svg10.dtd">
<svg version="1.0" xmlns="http://www.w3.org/2000/svg"
 width="101.000000pt" height="101.000000pt" viewBox="0 0 101.000000 101.000000"
 preserveAspectRatio="xMidYMid meet">
<metadata>
Created by potrace 1.11, written by Peter Selinger 2001-2013
</metadata>
<g transform="translate(0.000000,101.000000) scale(0.100000,-0.100000)"
fill="#000000" stroke="none">
<path d="M89 789 c-11 -6 -13 -16 -29 -149 -7 -52 -14 -104 -16 -115 -2 -11
-6 -42 -9 -70 -3 -27 -7 -59 -9 -70 -2 -11 -7 -49 -11 -85 -4 -36 -9 -73 -10
-83 -3 -15 5 -17 74 -17 l79 0 7 73 c4 39 9 81 11 92 1 11 6 40 9 65 3 25 8
59 10 75 7 45 13 93 20 160 4 33 9 62 11 64 2 2 24 5 49 7 l45 4 -6 -53 c-2
-28 -6 -63 -9 -77 -6 -41 -14 -102 -20 -150 -12 -94 -15 -102 -41 -97 -31 6
-57 -14 -52 -39 3 -17 13 -19 113 -19 l109 0 7 34 c4 19 10 62 13 95 4 34 11
93 17 131 5 39 12 84 14 100 2 17 7 51 10 78 6 41 5 47 -11 48 -102 4 -368 3
-375 -2z"/>
<path d="M608 792 c-11 -2 -18 -28 -27 -105 -12 -99 -19 -151 -26 -193 -4 -28
-19 -156 -19 -174 -1 -12 18 -15 108 -15 l110 0 7 28 c8 28 7 29 -43 29 -24 1
-27 4 -24 27 3 14 8 51 11 81 3 30 8 66 10 80 2 14 6 45 10 70 15 123 12 116
57 119 23 1 44 -3 48 -9 4 -6 3 -34 -1 -63 -5 -29 -11 -72 -14 -97 -10 -83
-16 -135 -20 -160 -2 -14 -7 -47 -10 -75 -11 -86 -2 -80 -127 -80 -62 1 -119
-1 -125 -3 -7 -2 -13 -15 -13 -28 l0 -23 199 -3 199 -3 16 120 c9 66 19 138
21 160 3 22 7 56 10 75 3 19 11 81 18 138 13 101 13 102 -7 103 -71 3 -355 3
-368 1z"/>
</g>
</svg>
